<svg width="24" height="24" viewBox="0 0 24 24" fill="none" xmlns="http://www.w3.org/2000/svg">
<path d="M8 22.3199C7.72 22.3199 7.42998 22.2499 7.16998 22.1099C6.59998 21.8099 6.25 21.2099 6.25 20.5699V19.15C3.23 18.84 1.25 16.6199 1.25 13.4399V7.43994C1.25 3.99994 3.56 1.68994 7 1.68994H17C20.44 1.68994 22.75 3.99994 22.75 7.43994V13.4399C22.75 16.8799 20.44 19.1899 17 19.1899H13.23L8.96997 22.03C8.67997 22.22 8.34 22.3199 8 22.3199ZM7 3.17993C4.42 3.17993 2.75 4.84993 2.75 7.42993V13.43C2.75 16.01 4.42 17.68 7 17.68C7.41 17.68 7.75 18.02 7.75 18.43V20.56C7.75 20.69 7.83 20.75 7.88 20.78C7.93001 20.81 8.03001 20.84 8.14001 20.77L12.59 17.81C12.71 17.73 12.86 17.68 13.01 17.68H17.01C19.59 17.68 21.26 16.01 21.26 13.43V7.42993C21.26 4.84993 19.59 3.17993 17.01 3.17993H7Z" fill="#9197B3"/>
<path d="M12.41 12C12 12 11.66 11.66 11.66 11.25V11.04C11.66 9.88004 12.51 9.31003 12.83 9.09003C13.2 8.84003 13.32 8.67004 13.32 8.41004C13.32 7.91004 12.91 7.5 12.41 7.5C11.91 7.5 11.5 7.91004 11.5 8.41004C11.5 8.82004 11.16 9.16004 10.75 9.16004C10.34 9.16004 10 8.82004 10 8.41004C10 7.08004 11.08 6 12.41 6C13.74 6 14.82 7.08004 14.82 8.41004C14.82 9.55004 13.98 10.12 13.67 10.33C13.28 10.59 13.16 10.76 13.16 11.04V11.25C13.16 11.67 12.82 12 12.41 12Z" fill="#9197B3"/>
<path d="M12 14.6001C11.58 14.6001 11.25 14.2601 11.25 13.8501C11.25 13.4401 11.59 13.1001 12 13.1001C12.41 13.1001 12.75 13.4401 12.75 13.8501C12.75 14.2601 12.42 14.6001 12 14.6001Z" fill="#9197B3"/>
</svg>
